<?xml version="1.0" standalone="no"?>
<svg xmlns:xlink="http://www.w3.org/1999/xlink" id="wave" style="transform:rotate(0deg); transition: 0.3s" viewBox="0 0 1440 390" version="1.1" xmlns="http://www.w3.org/2000/svg"><defs><linearGradient id="sw-gradient-0" x1="0" x2="0" y1="1" y2="0"><stop stop-color="rgba(67, 76, 94, 1)" offset="0%"/><stop stop-color="rgba(46, 52, 64, 1)" offset="100%"/></linearGradient></defs><path style="transform:translate(0, 0px); opacity:1" fill="url(#sw-gradient-0)" d="M0,156L60,188.5C120,221,240,286,360,266.5C480,247,600,143,720,84.5C840,26,960,13,1080,52C1200,91,1320,182,1440,208C1560,234,1680,195,1800,208C1920,221,2040,286,2160,318.5C2280,351,2400,351,2520,312C2640,273,2760,195,2880,143C3000,91,3120,65,3240,97.5C3360,130,3480,221,3600,266.5C3720,312,3840,312,3960,299C4080,286,4200,260,4320,214.5C4440,169,4560,104,4680,104C4800,104,4920,169,5040,214.5C5160,260,5280,286,5400,253.5C5520,221,5640,130,5760,123.5C5880,117,6000,195,6120,227.5C6240,260,6360,247,6480,201.5C6600,156,6720,78,6840,97.5C6960,117,7080,234,7200,247C7320,260,7440,169,7560,110.5C7680,52,7800,26,7920,32.5C8040,39,8160,78,8280,104C8400,130,8520,143,8580,149.5L8640,156L8640,390L8580,390C8520,390,8400,390,8280,390C8160,390,8040,390,7920,390C7800,390,7680,390,7560,390C7440,390,7320,390,7200,390C7080,390,6960,390,6840,390C6720,390,6600,390,6480,390C6360,390,6240,390,6120,390C6000,390,5880,390,5760,390C5640,390,5520,390,5400,390C5280,390,5160,390,5040,390C4920,390,4800,390,4680,390C4560,390,4440,390,4320,390C4200,390,4080,390,3960,390C3840,390,3720,390,3600,390C3480,390,3360,390,3240,390C3120,390,3000,390,2880,390C2760,390,2640,390,2520,390C2400,390,2280,390,2160,390C2040,390,1920,390,1800,390C1680,390,1560,390,1440,390C1320,390,1200,390,1080,390C960,390,840,390,720,390C600,390,480,390,360,390C240,390,120,390,60,390L0,390Z"/></svg>